<svg viewBox="0.00 0.00 734.00 98.00" xmlns="http://www.w3.org/2000/svg" xmlns:xlink="http://www.w3.org/1999/xlink"><g id="graph1" class="graph" transform="scale(1 1) rotate(0) translate(4 94)"><title>G</title><polygon fill="white" stroke="white" points="-4,5 -4,-94 731,-94 731,5 -4,5"/><!-- f.a --><g id="node2" class="node"><title>f.a</title><polygon fill="none" stroke="black" points="54,-63 0,-63 0,-27 54,-27 54,-63"/><text text-anchor="middle" x="27" y="-40.8" font-family="Times,serif" font-size="14.00">f.a</text></g><!-- preprocess --><g id="node9" class="node"><title>preprocess</title><ellipse fill="none" stroke="black" cx="143" cy="-45" rx="52.1463" ry="18"/><text text-anchor="middle" x="143" y="-40.8" font-family="Times,serif" font-size="14.00">preprocess</text></g><!-- f.a&#45;&gt;preprocess --><g id="edge3" class="edge"><title>f.a-&gt;preprocess</title><path fill="none" stroke="black" d="M54.1539,-45C62.071,-45 71.1241,-45 80.3409,-45"/><polygon fill="black" stroke="black" points="80.3602,-48.5001 90.3602,-45 80.3601,-41.5001 80.3602,-48.5001"/></g><!-- f.b1 --><g id="node3" class="node"><title>f.b1</title><polygon fill="none" stroke="black" points="286,-90 232,-90 232,-54 286,-54 286,-90"/><text text-anchor="middle" x="259" y="-67.8" font-family="Times,serif" font-size="14.00">f.b1</text></g><!-- findrange1 --><g id="node13" class="node"><title>findrange1</title><ellipse fill="none" stroke="black" cx="375" cy="-72" rx="52.7315" ry="18"/><text text-anchor="middle" x="375" y="-67.8" font-family="Times,serif" font-size="14.00">findrange1</text></g><!-- f.b1&#45;&gt;findrange1 --><g id="edge9" class="edge"><title>f.b1-&gt;findrange1</title><path fill="none" stroke="black" d="M286.154,-72C293.891,-72 302.714,-72 311.713,-72"/><polygon fill="black" stroke="black" points="311.901,-75.5001 321.901,-72 311.901,-68.5001 311.901,-75.5001"/></g><!-- f.b2 --><g id="node4" class="node"><title>f.b2</title><polygon fill="none" stroke="black" points="286,-36 232,-36 232,0 286,0 286,-36"/><text text-anchor="middle" x="259" y="-13.8" font-family="Times,serif" font-size="14.00">f.b2</text></g><!-- findrange2 --><g id="node15" class="node"><title>findrange2</title><ellipse fill="none" stroke="black" cx="375" cy="-18" rx="52.7315" ry="18"/><text text-anchor="middle" x="375" y="-13.8" font-family="Times,serif" font-size="14.00">findrange2</text></g><!-- f.b2&#45;&gt;findrange2 --><g id="edge11" class="edge"><title>f.b2-&gt;findrange2</title><path fill="none" stroke="black" d="M286.154,-18C293.891,-18 302.714,-18 311.713,-18"/><polygon fill="black" stroke="black" points="311.901,-21.5001 321.901,-18 311.901,-14.5001 311.901,-21.5001"/></g><!-- f.c1 --><g id="node5" class="node"><title>f.c1</title><polygon fill="none" stroke="black" points="518,-90 464,-90 464,-54 518,-54 518,-90"/><text text-anchor="middle" x="491" y="-67.8" font-family="Times,serif" font-size="14.00">f.c1</text></g><!-- analyze --><g id="node19" class="node"><title>analyze</title><ellipse fill="none" stroke="black" cx="595" cy="-45" rx="40.548" ry="18"/><text text-anchor="middle" x="595" y="-40.8" font-family="Times,serif" font-size="14.00">analyze</text></g><!-- f.c1&#45;&gt;analyze --><g id="edge17" class="edge"><title>f.c1-&gt;analyze</title><path fill="none" stroke="black" d="M518.003,-65.1169C527.673,-62.557 538.937,-59.5754 549.784,-56.7042"/><polygon fill="black" stroke="black" points="550.799,-60.0561 559.571,-54.1136 549.008,-53.2891 550.799,-60.0561"/></g><!-- f.c2 --><g id="node6" class="node"><title>f.c2</title><polygon fill="none" stroke="black" points="518,-36 464,-36 464,0 518,0 518,-36"/><text text-anchor="middle" x="491" y="-13.8" font-family="Times,serif" font-size="14.00">f.c2</text></g><!-- f.c2&#45;&gt;analyze --><g id="edge19" class="edge"><title>f.c2-&gt;analyze</title><path fill="none" stroke="black" d="M518.003,-24.8831C527.673,-27.443 538.937,-30.4246 549.784,-33.2958"/><polygon fill="black" stroke="black" points="549.008,-36.7109 559.571,-35.8864 550.799,-29.9439 549.008,-36.7109"/></g><!-- f.d --><g id="node7" class="node"><title>f.d</title><polygon fill="none" stroke="black" points="726,-63 672,-63 672,-27 726,-27 726,-63"/><text text-anchor="middle" x="699" y="-40.8" font-family="Times,serif" font-size="14.00">f.d</text></g><!-- preprocess&#45;&gt;f.b1 --><g id="edge5" class="edge"><title>preprocess-&gt;f.b1</title><path fill="none" stroke="black" d="M186.449,-55.0538C198.082,-57.8088 210.58,-60.769 221.825,-63.4323"/><polygon fill="black" stroke="black" points="221.201,-66.8813 231.739,-65.7802 222.815,-60.0697 221.201,-66.8813"/></g><!-- preprocess&#45;&gt;f.b2 --><g id="edge7" class="edge"><title>preprocess-&gt;f.b2</title><path fill="none" stroke="black" d="M186.449,-34.9462C198.082,-32.1912 210.58,-29.231 221.825,-26.5677"/><polygon fill="black" stroke="black" points="222.815,-29.9303 231.739,-24.2198 221.201,-23.1187 222.815,-29.9303"/></g><!-- findrange1&#45;&gt;f.c1 --><g id="edge13" class="edge"><title>findrange1-&gt;f.c1</title><path fill="none" stroke="black" d="M427.996,-72C436.749,-72 445.661,-72 453.898,-72"/><polygon fill="black" stroke="black" points="453.906,-75.5001 463.906,-72 453.906,-68.5001 453.906,-75.5001"/></g><!-- findrange2&#45;&gt;f.c2 --><g id="edge15" class="edge"><title>findrange2-&gt;f.c2</title><path fill="none" stroke="black" d="M427.996,-18C436.749,-18 445.661,-18 453.898,-18"/><polygon fill="black" stroke="black" points="453.906,-21.5001 463.906,-18 453.906,-14.5001 453.906,-21.5001"/></g><!-- analyze&#45;&gt;f.d --><g id="edge21" class="edge"><title>analyze-&gt;f.d</title><path fill="none" stroke="black" d="M635.728,-45C644.223,-45 653.158,-45 661.524,-45"/><polygon fill="black" stroke="black" points="661.741,-48.5001 671.741,-45 661.741,-41.5001 661.741,-48.5001"/></g></g></svg>